#!OML:ASF F:\VICON\USERDATA\INSTALL\rory3\rory3.ASF
:FULLY-SPECIFIED
:DEGREES
62
root 0.5848666058149127 17.84710516340511 24.299088389467123 -3.4523921570020137 -0.6151109471057796 -1.9901783782782514
lfemur -10.610312732493272 -2.312331827035887 -20.465310072956623
ltibia 40.07840207493414
lfoot -13.86746380913544 -2.770653065671936
ltoes -9.274669471414658
rfemur -9.524039176244727 4.013448227369 23.48173921528012
rtibia 39.16557953807179
rfoot -7.609334253233152 -7.945123531227262
rtoes 7.885879495686846
lowerback 10.060838468386931 0.9986762495721931 1.0138353064722843
upperback 0.3789909024255955 1.4483672470155904 1.1531703495442607
thorax -5.36111097262227 0.7988937141800155 0.2668883668281742
lowerneck -15.839458309277234 -3.1825566542285837 -1.523364927744138
upperneck 22.96634505975717 -4.1758254115283915 0.14433322258959003
head 10.145810567781758 -2.026560689864767 -0.2897178518797403
lclavicle -2.702606454386681e-15 -2.3230481476892612e-15
lhumerus -32.65753682205589 4.0414958879779315 83.05929981561566
lradius 20.55101925212307
lwrist 7.341523709169577
lhand -28.162075997835473 24.19926081026664
lfingers 7.125020000000001
lthumb -1.7999918291064365 54.08560740973344
rclavicle -2.70260645439206e-15 -2.323048147692416e-15
rhumerus -29.423480952615932 -23.740204499346476 -72.38974233150589
rradius 27.153642835739042
rwrist 4.353312969174104
rhand -18.100859398482765 22.121794974447756
rfingers 7.125020000000001
rthumb 8.199008399786 -7.673557774592432
63
root 0.5986411198683632 17.851705154684193 24.990192583784243 -3.4313931016323655 -0.6072016270131625 -1.615678720155001
lfemur -8.653607252479418 -2.5549852868482206 -21.047525819858674
ltibia 37.76883207606189
lfoot -14.13268934254253 -2.0777546971840803
ltoes -11.050741834645695
rfemur -10.966147952031065 3.7768388844692358 22.89548762437549
rtibia 40.007855698894474
rfoot -8.018041403753848 -7.9640031899346155
rtoes 8.25918332821374
lowerback 10.04791196569495 0.866403240718708 0.6359519508866773
upperback 0.3529158797152521 1.1970959512525299 1.0885425240116755
thorax -5.431335088475379 0.6838286981113657 0.5726518216370661
lowerneck -15.836146664362348 -3.164075278022396 -1.5491844864701658
upperneck 22.84334281303439 -4.147916621858951 0.2406585066996448
head 10.07213871935981 -2.0135637572947376 -0.23581056487503801
lclavicle -2.702606454392147e-15 -2.323048147692811e-15
lhumerus -32.80924574359144 4.404568833148279 83.1620466628241
lradius 20.619105065863064
lwrist 7.212853273729976
lhand -28.087590056180805 24.235552583496307
lfingers 7.125020000000001
lthumb -1.7877485298013793 54.08124645781347
rclavicle -2.702606454391865e-15 -2.3230481476919733e-15
rhumerus -28.728822556501076 -23.119654971849027 -72.33607073739715
rradius 27.62733076793003
rwrist 4.195293999485019
rhand -18.147414491355743 22.122469625913375
rfingers 7.125020000000001
rthumb 8.206983730950393 -7.59122564856471
64
root 0.6090498897873202 17.868005342532857 25.299435683507436 -3.1245498617945437 -0.563107337355861 -1.9072267800116478
lfemur -8.042830897858797 -2.6933185616126107 -21.148440527769253
ltibia 36.65290223170039
lfoot -14.595192820956875 -1.3700751699793394
ltoes -11.949004107550552
rfemur -12.15195394939077 3.6417658652376432 23.055498859092843
rtibia 39.86819006785387
rfoot -8.398157842434465 -7.9261763934035026
rtoes 7.443077430342752
lowerback 9.997013425952995 0.7162693788447572 0.7917315084101045
upperback 0.30631333125871313 1.0053831581839838 1.1449651130270877
thorax -5.499773025170626 0.5939956835648627 0.8163162906303121
lowerneck -15.869508756043366 -3.1376830075154127 -1.549243257018434
upperneck 22.825446569090857 -4.109389470547521 0.24197366001415468
head 10.047161295228156 -1.998461606909364 -0.22707443019497683
lclavicle -2.702606454398145e-15 -2.3230481476968315e-15
lhumerus -33.09227587267621 4.642417230104965 83.13522691234975
lradius 20.713462757447527
lwrist 7.229978002693036
lhand -27.76143635070336 24.829037786356253
lfingers 7.125020000000001
lthumb -1.6448710178628532 54.449052905756396
rclavicle -2.702606454385165e-15 -2.3230481476870568e-15
rhumerus -28.147539776575137 -22.60582248803526 -72.62245780620601
rradius 28.147122775255706
rwrist 4.227782035450622
rhand -18.131784370492145 22.160705492731225
rfingers 7.125020000000001
rthumb 8.167577365077063 -7.550873053854577
65
root 0.6282137128772244 17.880131427644095 25.4988150210137 -2.9752070009729157 -0.6546141652801427 -2.0158739873394538
lfemur -6.748844295827982 -2.7080278789637893 -20.991527724521173
ltibia 35.97011828420868
lfoot -15.026877535338697 -0.6045705311222085
ltoes -6.734371538803996
rfemur -13.196339666067193 3.635248205895543 23.092712259304147
rtibia 39.62284517146881
rfoot -8.859986474970874 -7.811803905985252
rtoes 6.728498931726975
lowerback 9.956647879063558 0.5656410486007567 0.7729308964035166
upperback 0.29340503457295264 0.8091222259279239 1.1884494095684672
thorax -5.524436509017105 0.4776559719639948 1.0245968765932645
lowerneck -15.910098316855045 -3.1128384042014545 -1.5631708551419121
upperneck 22.82631335627245 -4.064517767049167 0.26546933202793566
head 10.02109656621409 -1.980336155975304 -0.20027212462393812
lclavicle -2.7026064543972647e-15 -2.3230481476960245e-15
lhumerus -33.12074964294415 5.125063257533812 83.10740095579895
lradius 20.81429397433423
lwrist 7.321757370692161
lhand -27.615204352517775 24.989907617432895
lfingers 7.125020000000001
lthumb -1.6352290462833614 54.47014025734691
rclavicle -2.702606454397902e-15 -2.323048147695968e-15
rhumerus -27.53663137877129 -21.863743162250387 -72.94401911955482
rradius 28.69147411833664
rwrist 4.123805745493507
rhand -18.175916954333747 22.166926732646477
rfingers 7.125020000000001
rthumb 8.185204905636096 -7.378133420749757
66
root 0.6343817672721015 17.896614232863385 25.710443701103635 -2.7912243140017456 -0.8533262777162338 -2.3336543852295852
lfemur -5.8153202956896415 -2.6480899279423022 -20.814997781568323
ltibia 35.944998293314214
lfoot -15.586431285810345 0.0683532791686079
ltoes -7.141878016816511
rfemur -13.965688343118098 3.851627119257814 23.46803749498831
rtibia 38.699514936715744
rfoot -9.25348891036244 -7.627531958694078
rtoes 5.953189665220259
lowerback 9.906846807411652 0.44762233565679244 0.8949320169176485
upperback 0.27547809120081523 0.6637277308392446 1.2696084683544797
thorax -5.546747265809317 0.40734059391797006 1.2297737572858563
lowerneck -15.948301993647181 -3.0767903225584545 -1.5595735837180742
upperneck 22.90234767605779 -4.008540809110553 0.23638162592686002
head 10.057443283675934 -1.9585045054378225 -0.20073819909237006
lclavicle -2.702606454398245e-15 -2.323048147696505e-15
lhumerus -33.377570360492875 5.363339559209436 82.87480649607517
lradius 20.91813635481128
lwrist 7.351542034048725
lhand -27.45204436561847 25.278975563990816
lfingers 7.125020000000001
lthumb -1.566017296178957 54.63311689792147
rclavicle -2.7026064544036557e-15 -2.3230481476997637e-15
rhumerus -27.23523963753588 -21.248718763173795 -72.89727463869878
rradius 29.15652224628537
rwrist 3.5319303567125915
rhand -18.111173631215014 22.306638374714964
rfingers 7.125020000000001
rthumb 8.199828773206358 -7.207982270300882
67
root 0.6385857603175948 17.91354480717653 25.70305629834901 -2.650107855059479 -1.0814922882665348 -2.5672308942636812
lfemur -4.55013710495446 -2.5768452590537114 -20.576346582463994
ltibia 35.869883443476354
lfoot -15.988723241929133 0.7866517170021954
ltoes -5.4450359387607286
rfemur -14.53032378628539 4.133628442969984 23.84466569073981
rtibia 37.38957062649778
rfoot -9.557037202238506 -7.336699709913514
rtoes 5.288146453283819
lowerback 9.854054087404085 0.3475388576095894 0.9507653631190601
upperback 0.23679944042402934 0.523978214824706 1.3558052859551182
thorax -5.549702065311173 0.33895591685351334 1.4165072838833077
lowerneck -15.967629610202152 -3.0419306426827117 -1.5767996231276924
upperneck 23.016463616760884 -3.9435935253279304 0.20432392473457847
head 10.115426071656945 -1.9310298412122229 -0.19461236075637423
lclavicle -2.7026064543918586e-15 -2.3230481476918846e-15
lhumerus -33.40404362039731 5.817826665606029 82.67585780701249
lradius 20.833175956791695
lwrist 7.248842089039254
lhand -27.388766572860977 25.259188117009042
lfingers 7.125020000000001
lthumb -1.405219113419699 54.77713199445873
rclavicle -2.702606454407912e-15 -2.3230481477026778e-15
rhumerus -27.211121922075158 -20.95261025649209 -72.59295567890081
rradius 29.557259653706932
rwrist 3.526848322912682
rhand -18.092666256098894 22.410864623693698
rfingers 7.125020000000001
rthumb 8.158748345453766 -7.139771772820234
